Coordinates
version=1
nRows=8
nColumns=63
inDegrees=yes

Units are S.I. units (second, meters, Newtons, ...)
If the header above contains a line with 'inDegrees', this indicates whether rotational values are in degrees (yes) or radians (no).

endheader
time	pelvis_tilt	pelvis_list	pelvis_rotation	pelvis_tx	pelvis_ty	pelvis_tz	hip_flexion_r	hip_adduction_r	hip_rotation_r	knee_angle_r	knee_angle_r_beta	ankle_angle_r	subtalar_angle_r	mtp_angle_r	hip_flexion_l	hip_adduction_l	hip_rotation_l	knee_angle_l	knee_angle_l_beta	ankle_angle_l	subtalar_angle_l	mtp_angle_l	L5_S1_Flex_Ext	L5_S1_Lat_Bending	L5_S1_axial_rotation	L4_L5_Flex_Ext	L4_L5_Lat_Bending	L4_L5_axial_rotation	L3_L4_Flex_Ext	L3_L4_Lat_Bending	L3_L4_axial_rotation	L2_L3_Flex_Ext	L2_L3_Lat_Bending	L2_L3_axial_rotation	L1_L2_Flex_Ext	L1_L2_Lat_Bending	L1_L2_axial_rotation	L1_T12_Flex_Ext	L1_T12_Lat_Bending	L1_T12_axial_rotation	Abs_r3	Abs_r2	Abs_r1	Abs_t1	Abs_t2	neck_flexion	neck_bending	neck_rotation	arm_flex_r	arm_add_r	arm_rot_r	elbow_flex_r	pro_sup_r	wrist_flex_r	wrist_dev_r	arm_flex_l	arm_add_l	arm_rot_l	elbow_flex_l	pro_sup_l	wrist_flex_l	wrist_dev_l
      0.00000000	      2.74467956	     -5.50765733	     96.27802434	      0.23482612	      1.13866635	      0.34241884	     -4.98096081	      2.22695702	      4.14058466	      5.08126626	      0.08868483	     22.85899525	      6.41569261	      0.00000000	     -3.69618751	     -5.36396414	     -6.91116704	      5.38001253	      0.09389893	     24.45444260	     12.48368352	      0.00000000	      0.01122501	      0.36517389	      0.43175614	      0.02084597	      0.48568127	      0.45874090	      0.01844157	      0.88788379	      0.45874090	      0.01282907	      0.88788379	      0.37778663	      0.01042355	      0.74466259	      0.35080187	      0.00641397	      0.56565435	      0.32381711	      0.08017914	      4.13092006	      2.40129815	      0.00000000	      0.00000000	     16.55028138	     -2.94760591	      1.78533177	     13.40557238	     -5.92208988	     55.42965825	     37.85921552	     69.62400742	      7.62455036	      6.96657190	     22.38875504	     -4.66398444	     71.22132435	     33.48281990	     84.06171313	     15.88107461	     15.34088789
      0.02083333	      2.85153172	     -5.32815722	     94.87765934	      0.23724257	      1.13886095	      0.34041628	     -5.14343565	      2.30111715	      6.17414144	      4.84242229	      0.08451621	     23.49791219	      5.89729159	      0.00000000	     -4.57661066	     -5.33866282	     -6.93131076	      4.97305166	      0.08679613	     24.14152737	     10.57644676	      0.00000000	      0.01611084	      0.32502702	      0.93148514	      0.02991945	      0.43228594	      0.98970296	      0.02646851	      0.79027070	      0.98970296	      0.01841308	      0.79027070	      0.81504950	      0.01496053	      0.66279511	      0.75683168	      0.00920574	      0.50346686	      0.69861386	      0.11507815	      3.67677070	      5.18064091	      0.00000000	      0.00000000	     16.07641404	     -3.73156048	     -2.28408072	     12.53231299	     -6.03327096	     53.31396704	     38.31967925	     64.22084953	      6.79363789	      7.33356160	     22.98907663	     -4.05939314	     74.00365912	     32.77009363	     85.02997464	     16.10751918	     14.83395841
      0.04166667	      2.96075859	     -5.20110663	     93.83673454	      0.23858020	      1.13896706	      0.33880346	     -5.36810664	      2.34397547	      7.89023395	      4.54576898	      0.07933864	     23.68660784	      5.19940234	      0.00000000	     -5.30274981	     -5.27914959	     -6.71676023	      4.51308750	      0.07876824	     23.71649536	      8.87640013	      0.00000000	      0.03125721	      0.31397585	      1.26639427	      0.05804777	      0.41758788	      1.34554391	      0.05135247	      0.76340089	      1.34554391	      0.03572387	      0.76340089	      1.10809499	      0.02902545	      0.64025956	      1.02894534	      0.01786037	      0.48634860	      0.94979570	      0.22326713	      3.55175764	      7.04330501	      0.00000000	      0.00000000	     15.68907182	     -3.91102341	     -4.12684227	     12.14431584	     -6.24490180	     52.77723041	     38.54025089	     60.03896171	      6.32096912	      6.64070258	     23.25960939	     -3.57780728	     75.89148883	     32.18032687	     85.23663136	     15.41886094	     14.13696302
      0.06250000	      3.10666030	     -4.82242555	     93.15736010	      0.23957484	      1.13935450	      0.33782191	     -5.89286942	      2.53568169	     10.81177780	      4.31134113	      0.07524710	     23.24175057	      2.07516405	      0.00000000	     -6.12378177	     -5.23825547	     -4.46696484	      4.10623076	      0.07166725	     22.92448144	      4.68264431	      0.00000000	      0.01006530	      0.32319014	      1.40144084	      0.01869226	      0.42984288	      1.48903089	      0.01653628	      0.78580450	      1.48903089	      0.01150363	      0.78580450	      1.22626073	      0.00934663	      0.65904933	      1.13867068	      0.00575131	      0.50062152	      1.05108063	      0.07189540	      3.65599149	      7.79439352	      0.00000000	      0.00000000	     14.88579462	     -4.18839339	     -4.94049393	     13.07996307	     -6.48494349	     56.16573301	     38.31846896	     53.31179012	      5.26645087	      6.27291741	     23.88320796	     -3.42155086	     78.74103641	     31.67151194	     84.62989186	     14.49910426	     12.74302418
      0.08333333	      3.22074354	     -4.58850584	     92.13197781	      0.24062578	      1.13950839	      0.33703582	     -6.08093456	      2.51697777	     11.17773710	      4.50508362	      0.07862854	     23.52861390	      2.93393061	      0.00000000	     -6.77536267	     -5.18740666	     -4.89669708	      3.79758695	      0.06628040	     22.55058396	      3.68535767	      0.00000000	      0.00228275	      0.34352738	      1.55548583	      0.00423929	      0.45689141	      1.65270370	      0.00375032	      0.83525247	      1.65270370	      0.00260895	      0.83525247	      1.36105010	      0.00211976	      0.70052103	      1.26383224	      0.00130436	      0.53212391	      1.16661437	      0.01630542	      3.88605041	      8.65114555	      0.00000000	      0.00000000	     14.31439688	     -4.37681283	     -4.85675495	     13.44829503	     -6.44519137	     56.94633308	     37.95232531	     52.24978972	      5.96614383	      6.09252493	     23.75242756	     -3.39042011	     78.54376906	     31.64122413	     84.43265175	     13.69186973	     13.19035272
      0.10416667	      3.28526811	     -4.29082268	     91.70110428	      0.24090320	      1.13966231	      0.33654457	     -6.42189398	      2.50637453	     11.21392959	      4.61817807	      0.08060241	     23.64578850	      3.42075748	      0.00000000	     -7.29058989	     -5.17192843	     -5.16062859	      3.62239702	      0.06322275	     22.37050080	      3.42062441	      0.00000000	     -0.02107072	      0.36427376	      1.56893270	     -0.03913044	      0.48448411	      1.66699099	     -0.03461709	      0.88569523	      1.66699099	     -0.02408173	      0.88569523	      1.37281611	     -0.01956627	      0.74282706	      1.27475782	     -0.01203981	      0.56426006	      1.17669952	     -0.15050605	      4.12073767	      8.72593299	      0.00000000	      0.00000000	     13.82937914	     -4.42774783	     -4.27562868	     13.81548636	     -6.32684160	     57.62024596	     37.75449284	     51.96967528	      6.01162954	      6.44939828	     23.71437839	     -3.49838203	     78.41316182	     31.74642340	     84.15808673	     12.71546521	     13.41358360
      0.12500000	      3.38406740	     -4.13311990	     90.90927586	      0.24153725	      1.13959624	      0.33587142	     -6.60245439	      2.51411863	     12.28963583	      4.75427621	      0.08297777	     23.62569691	      2.92161394	      0.00000000	     -7.78814806	     -5.08174951	     -4.79620619	      3.28582418	      0.05734845	     21.94836704	      1.72760168	      0.00000000	     -0.02356674	      0.39439754	      1.61593948	     -0.04376580	      0.52454872	      1.71693570	     -0.03871780	      0.95893817	      1.71693570	     -0.02693443	      0.95893817	      1.41394704	     -0.02188408	      0.80425546	      1.31295083	     -0.01346604	      0.61092178	      1.21195461	     -0.16833489	      4.46150382	      8.98737061	      0.00000000	      0.00000000	     13.56364484	     -4.38151841	     -3.07645103	     14.33290058	     -6.21395855	     59.01753207	     37.25128469	     51.42037375	      6.82370168	      6.32967461	     23.17155148	     -3.68038975	     76.57312551	     32.02146095	     84.90362029	     12.10729728	     13.90241193
      0.14583333	      3.38931633	     -3.98164167	     90.56585401	      0.24182859	      1.13944691	      0.33560302	     -6.77247818	      2.46832470	     12.69472214	      4.85587330	      0.08475098	     23.71688818	      2.87965316	      0.00000000	     -8.09278448	     -5.01039194	     -4.67466934	      3.12233635	      0.05449505	     22.08773805	      1.22890521	      0.00000000	     -0.03719801	      0.40557515	      1.61213001	     -0.06908042	      0.53941495	      1.71288814	     -0.06111261	      0.98611542	      1.71288814	     -0.04251361	      0.98611542	      1.41061376	     -0.03454207	      0.82704885	      1.30985564	     -0.02125494	      0.62823591	      1.20909751	     -0.26570167	      4.58794722	      8.96618350	      0.00000000	      0.00000000	     13.32521201	     -4.40896387	     -2.40691612	     14.63841798	     -6.14606158	     59.83554731	     37.11192443	     50.82798911	      7.19076541	      6.91646408	     23.21702636	     -3.83160879	     76.42533568	     32.19493102	     85.92170633	     11.93110947	     13.98232542
